<svg width="398" height="512" viewBox="0 0 398 512" fill="none" xmlns="http://www.w3.org/2000/svg">
<path d="M398 30V0H60.5C27.09 0 0 27.09 0 60.5V451.5C0 484.91 27.09 512 60.5 512H398V120V90C381.43 90 368 76.57 368 60C368 43.43 381.43 30 398 30ZM368 482H60.5C43.68 482 30 468.32 30 451.5V111.95C38.83 117.07 49.08 120 60 120H368V482ZM60 90C43.43 90 30 76.57 30 60C30 51.72 33.36 44.22 38.79 38.79C44.21 33.36 51.71 30 60 30H346.05C340.93 38.83 338 49.08 338 60C338 70.92 340.93 81.17 346.05 90H60Z" fill="black"/>
</svg>
