<svg width="41" height="41" viewBox="0 0 41 41" fill="none" xmlns="http://www.w3.org/2000/svg">
<path d="M38.2667 13.6694H29.3834C29.006 13.6694 28.7001 13.9754 28.7001 14.3527V17.0858C28.7001 17.4631 29.006 17.769 29.3834 17.769H31.4334C32.1882 17.769 32.8 18.3808 32.8 19.1356C32.8 19.8903 32.1882 20.5021 31.4334 20.5021H29.3834C29.006 20.5021 28.7001 20.808 28.7001 21.1853V24.6017H18.4501C18.0728 24.6017 17.7668 24.9076 17.7668 25.2849V34.1674C17.7668 35.6768 18.9906 36.9004 20.5001 36.9004H38.2667C39.7762 36.9004 41 35.6768 41 34.1674V16.4025C41 14.8931 39.7762 13.6694 38.2667 13.6694ZM28.7001 35.5339H20.5001C19.7453 35.5339 19.1335 34.9221 19.1335 34.1674V25.9682H28.7001V27.3347H27.3334C25.8239 27.3347 24.6001 28.5584 24.6001 30.0678C24.6001 31.5772 25.8239 32.8008 27.3334 32.8008H28.7001V35.5339ZM39.6333 34.1674C39.6333 34.9221 39.0215 35.5339 38.2667 35.5339H30.0667V32.1176C30.0667 31.7402 29.7608 31.4343 29.3834 31.4343H27.3334C26.5786 31.4343 25.9668 30.8225 25.9668 30.0678C25.9668 29.313 26.5786 28.7013 27.3334 28.7013H29.3834C29.7608 28.7013 30.0667 28.3953 30.0667 28.018V25.9682H32.1167V27.3347C32.1167 28.8441 33.3405 30.0678 34.85 30.0678C36.3596 30.0678 37.5834 28.8441 37.5834 27.3347V25.9682H39.6333V34.1674ZM39.6333 24.6017H36.9C36.5227 24.6017 36.2167 24.9076 36.2167 25.2849V27.3347C36.2167 28.0895 35.6049 28.7013 34.85 28.7013C34.0952 28.7013 33.4834 28.0895 33.4834 27.3347V25.2849C33.4834 24.9076 33.1774 24.6017 32.8 24.6017H30.0667V21.8686H31.4334C32.943 21.8686 34.1667 20.645 34.1667 19.1356C34.1667 17.6261 32.943 16.4025 31.4334 16.4025H30.0667V15.036H38.2667C39.0215 15.036 39.6333 15.6477 39.6333 16.4025V24.6017Z" fill="black"/>
<path d="M30.0669 2.73722H28.7003V0.687432C28.7003 0.3101 28.3943 0.00416857 28.017 0.00416857H19.1337C17.6241 0.00416857 16.4004 1.22781 16.4004 2.73722V10.3898L13.5734 11.7563C13.1483 11.1948 12.6206 10.719 12.0182 10.3542C14.7174 9.0019 15.8092 5.71762 14.4567 3.01864C13.1042 0.319666 9.81965 -0.772019 7.12042 0.580331C4.42118 1.93268 3.32939 5.21696 4.68187 7.91594C5.14824 8.84654 5.87061 9.62469 6.76406 10.1588C5.33377 10.8563 4.27743 12.141 3.86948 13.679L1.1471 22.2506C0.376898 24.6716 0.533551 27.2924 1.58648 29.6045C2.70321 32.0486 2.65093 34.8671 1.44434 37.268L0.0722191 40.0113C-0.0964778 40.3489 0.0404443 40.7592 0.378009 40.9279C0.472991 40.9753 0.577626 41 0.683798 41H8.20042C8.57779 41 8.88375 40.6941 8.88375 40.3167C8.8858 39.0486 8.1812 37.8849 7.05652 37.2988L7.38316 36.6469C8.37227 34.6586 8.69412 32.4045 8.30087 30.2188L7.79384 27.4311C7.72892 27.0712 7.96808 26.7269 8.32794 26.662C8.36638 26.655 8.40533 26.6515 8.44437 26.6515C8.76416 26.6511 9.03852 26.8794 9.09626 27.194L10.0242 32.2993C10.1746 33.1285 10.2504 33.9696 10.2504 34.8124V40.3167C10.2504 40.6941 10.5564 41 10.9337 41H18.4503C18.8277 41 19.1337 40.6941 19.1337 40.3167C19.1337 40.1838 19.1259 40.051 19.1104 39.9191C18.9929 38.8907 18.3578 37.9937 17.4267 37.5413C16.6645 37.1529 15.7814 37.0746 14.9626 37.3227L15.4177 35.0488C15.6166 34.0533 15.7168 33.0405 15.717 32.0253V25.9094L14.9189 16.7598L19.6605 14.4976C20.5367 14.1079 21.1207 13.2603 21.1727 12.3029H28.017C28.3943 12.3029 28.7003 11.997 28.7003 11.6197V8.20333H30.0669C31.5765 8.20333 32.8003 6.97969 32.8003 5.47028C32.8003 3.96086 31.5765 2.73722 30.0669 2.73722ZM5.4671 5.47028C5.4671 3.20611 7.30269 1.3707 9.56707 1.3707C11.8315 1.3707 13.667 3.20611 13.667 5.47028C13.667 7.73445 11.8315 9.56986 9.56707 9.56986C7.30372 9.56764 5.46941 7.73351 5.4671 5.47028ZM14.962 38.8013C15.531 38.4783 16.2243 38.4632 16.8069 38.7609C17.1803 38.9418 17.4754 39.2518 17.6379 39.6335H11.6171V34.8124C11.617 33.8876 11.5338 32.9646 11.3683 32.0547L10.4404 26.95C10.2495 25.8464 9.20004 25.1064 8.09638 25.2973C6.99263 25.4881 6.25259 26.5375 6.44349 27.6411C6.44546 27.6526 6.44759 27.6641 6.44981 27.6757L6.95753 30.4634C7.29774 32.3581 7.01834 34.312 6.16077 36.0354L5.49725 37.3616C5.32625 37.698 5.46035 38.1094 5.79681 38.2804C5.84404 38.3044 5.89401 38.3228 5.94552 38.3353C6.61877 38.4939 7.16603 38.9824 7.39964 39.6335H1.78951L2.66554 37.8788C4.05705 35.1092 4.11736 31.8581 2.82954 29.0388C1.91644 27.0346 1.78054 24.7627 2.44824 22.6639L5.18155 14.0548C5.74872 11.9301 7.85944 10.6031 10.0202 11.0129C10.9132 11.1918 11.7193 11.6677 12.3073 12.363L8.26884 14.3138C7.39426 14.7392 6.83769 15.6248 6.83384 16.5972C6.83043 17.9957 7.96142 19.1322 9.36003 19.1356C9.74158 19.1366 10.1184 19.0513 10.4623 18.8862L13.6056 17.3878L14.3505 25.9682V32.0253C14.3497 32.9504 14.2581 33.8731 14.0771 34.7802L13.3487 38.4193C13.2744 38.7893 13.514 39.1495 13.884 39.2238C14.0461 39.2563 14.2145 39.2291 14.358 39.147L14.962 38.8013ZM19.1016 13.2513L19.0811 13.2602L9.87321 17.6529C9.2899 17.9306 8.59179 17.6829 8.31402 17.0996C8.23928 16.9426 8.2005 16.771 8.20042 16.5972C8.20213 16.1491 8.45837 15.7408 8.8612 15.5443L18.1429 11.0621C18.5119 10.8974 18.9397 10.9329 19.2765 11.1564C19.6166 11.3748 19.8208 11.7525 19.817 12.1567C19.8168 12.6312 19.5362 13.0607 19.1016 13.2513ZM30.0669 6.83681H28.017C27.6396 6.83681 27.3336 7.14274 27.3336 7.52007V10.9364H20.8755C20.2749 9.8272 18.9543 9.32269 17.767 9.74888V2.73722C17.767 1.98247 18.3789 1.3707 19.1337 1.3707H27.3336V3.42049C27.3336 3.79782 27.6396 4.10375 28.017 4.10375H30.0669C30.8218 4.10375 31.4336 4.71553 31.4336 5.47028C31.4336 6.22503 30.8218 6.83681 30.0669 6.83681Z" fill="black"/>
<path d="M27.5336 17.9692L25.2834 20.2192V16.4025H23.9168V21.5857L23.2335 22.269L22.5501 21.5857V19.1355H21.1835V20.2192L18.9333 17.9692L17.967 18.9354L22.7503 23.7182C23.0172 23.9849 23.4497 23.9849 23.7166 23.7182L28.4999 18.9354L27.5336 17.9692Z" fill="black"/>
<path d="M22.5501 16.4025H21.1835V17.769H22.5501V16.4025Z" fill="black"/>
<path d="M22.5501 13.6694H21.1835V15.036H22.5501V13.6694Z" fill="black"/>
<path d="M25.2834 13.6694H23.9168V15.036H25.2834V13.6694Z" fill="black"/>
</svg>
