<?xml version="1.0" encoding="UTF-8"?><svg xmlns="http://www.w3.org/2000/svg" xmlns:xlink="http://www.w3.org/1999/xlink" version="1.1" id="Layer_1" x="0px" y="0px" viewBox="0 0 29 29" xml:space="preserve"><style type="text/css">.st0{fill:none;stroke:#000000;stroke-width:2;stroke-miterlimit:10;} .st1{fill:none;stroke:#000000;stroke-width:2;stroke-linecap:round;stroke-linejoin:round;stroke-miterlimit:10;} .st2{fill:none;stroke:#000000;stroke-miterlimit:10;} .st3{fill:none;stroke:#000000;stroke-width:2;stroke-miterlimit:10;stroke-dasharray:1.7411,1.7411;} .st4{fill:none;stroke:#000000;stroke-width:2;stroke-linecap:round;stroke-linejoin:round;stroke-dasharray:2.0261,4.0522;} .st5{fill:#606060;} .st6{stroke:#000000;stroke-miterlimit:10;}</style><path d="M14.5 25.902c-.158 0-.317-.038-.463-.113a11.432 11.432 0 0 0-10.574 0A1.002 1.002 0 0 1 2 24.902v-19a1 1 0 0 1 .429-.821c3.781-2.631 8.861-2.631 12.643 0 .268.187.428.494.428.821v19a1 1 0 0 1-1 1zm-5.75-3.409c1.61 0 3.221.289 4.75.867V6.442a9.118 9.118 0 0 0-9.5 0V23.36a13.436 13.436 0 0 1 4.75-.867z"/><path d="M26 25.902c-.158 0-.317-.038-.463-.113a11.432 11.432 0 0 0-10.574 0 1.002 1.002 0 0 1-1.463-.887v-19a1 1 0 0 1 .429-.821c3.781-2.631 8.861-2.631 12.643 0 .268.187.428.494.428.821v19a1 1 0 0 1-1 1zm-5.75-3.409c1.61 0 3.221.289 4.75.867V6.442a9.118 9.118 0 0 0-9.5 0V23.36a13.436 13.436 0 0 1 4.75-.867z"/><metadata><rdf:RDF xmlns:rdf="http://www.w3.org/1999/02/22-rdf-syntax-ns#" xmlns:rdfs="http://www.w3.org/2000/01/rdf-schema#" xmlns:dc="http://purl.org/dc/elements/1.1/"><rdf:Description about="https://iconscout.com/legal#licenses" dc:title="book,ibook,study,education,open,knowledge" dc:description="book,ibook,study,education,open,knowledge" dc:publisher="Iconscout" dc:date="2017-10-03" dc:format="image/svg+xml" dc:language="en"><dc:creator><rdf:Bag><rdf:li>Jemis Mali</rdf:li></rdf:Bag></dc:creator></rdf:Description></rdf:RDF></metadata></svg>