<svg width="40" height="42" viewBox="0 0 40 42" fill="none" xmlns="http://www.w3.org/2000/svg">
<path d="M11.8817 37.9286C11.7691 37.9286 11.6585 37.9006 11.5591 37.8471L3.36966 33.4149C3.15067 33.2965 3.014 33.0674 3.014 32.8182V16.5259C3.014 13.3615 5.56183 10.7865 8.69324 10.7865H30.4869C35.5942 10.7865 39.7495 14.988 39.7495 20.1516V37.2383C39.7495 37.6129 39.4462 37.9169 39.0711 37.9169L11.8817 37.9286ZM4.37101 32.414L12.0537 36.5716L38.3921 36.5599V20.1516C38.3921 15.7362 34.8456 12.1435 30.4869 12.1435H8.69324C6.31003 12.1435 4.37101 14.1094 4.37101 16.5259V32.414Z" fill="black"/>
<path d="M39.0708 41.9298H11.7726C11.6554 41.9298 11.5396 41.8991 11.4375 41.8413L3.35762 37.2554C3.14524 37.1346 3.014 36.9094 3.014 36.6652V32.8707C3.014 32.6323 3.13941 32.4113 3.34364 32.2886C3.54865 32.1655 3.80258 32.1593 4.01263 32.2723L12.0518 36.5717L39.0704 36.5596C39.2501 36.5596 39.4233 36.6314 39.5503 36.7584C39.6776 36.8858 39.7495 37.0585 39.7495 37.2383L39.7491 41.2511C39.7495 41.6262 39.4454 41.9298 39.0708 41.9298ZM11.9516 40.5728H38.3921V37.9174L11.8817 37.9286C11.7703 37.9286 11.66 37.9011 11.5618 37.8487L4.37101 34.0032V36.27L11.9516 40.5728Z" fill="black"/>
<path d="M11.8817 42C11.507 42 11.2033 41.696 11.2033 41.3213V18.2507C11.0873 15.0257 10.7258 12.724 7.11602 12.7004H6.42024C6.04556 12.7004 5.74155 12.3963 5.74155 12.0217C5.74155 11.647 6.04556 11.3434 6.42024 11.3434H7.12068C12.3146 11.3775 12.4676 15.6652 12.56 18.2266L12.5604 41.3213C12.5604 41.696 12.2567 42 11.8817 42Z" fill="black"/>
<path d="M39.0237 27.7505H29.1962C28.8215 27.7505 28.5175 27.4465 28.5175 27.0718C28.5175 26.6971 28.8215 26.3935 29.1962 26.3935H38.3454V23.0004H29.1962C28.8215 23.0004 28.5175 22.6967 28.5175 22.3221C28.5175 21.9474 28.8215 21.6434 29.1962 21.6434H39.0237C39.3988 21.6434 39.7024 21.9474 39.7024 22.3221V27.0718C39.7024 27.4465 39.3988 27.7505 39.0237 27.7505Z" fill="black"/>
<path d="M21.3815 27.7505H11.8817C11.7679 27.7505 11.6557 27.7218 11.5556 27.667L3.36616 23.1747C3.14873 23.0555 3.014 22.8272 3.014 22.5795V18.4848C3.014 18.2522 3.13281 18.0368 3.3285 17.9121C3.52419 17.7871 3.77035 17.772 3.9808 17.8702L12.0331 21.6434H21.3819C21.7566 21.6434 22.0602 21.9474 22.0602 22.3221C22.0602 22.6968 21.7566 23.0004 21.3819 23.0004H11.8821C11.7827 23.0004 11.6841 22.9787 11.594 22.9363L4.3714 19.5518V22.1777L12.056 26.3935H21.3819C21.7566 26.3935 22.0606 26.6971 22.0606 27.0718C22.0606 27.4465 21.7562 27.7505 21.3815 27.7505Z" fill="black"/>
<path d="M25.3123 33.2072C24.6072 33.2072 23.9025 32.9389 23.3655 32.4023L22.1646 31.201C21.6443 30.6807 21.3578 29.9892 21.3578 29.2542V21.0027C21.3578 18.9538 20.7571 16.9701 19.6211 15.2648L17.4176 11.8314C17.2837 11.6229 17.2744 11.3573 17.3936 11.1399C17.5124 10.922 17.7407 10.7865 17.9888 10.7865H25.4529C25.7177 10.7865 25.958 10.9403 26.0687 11.181L27.7604 14.8455C28.9388 16.9103 29.5243 18.8039 29.5243 20.5842V29.2542C29.5243 30.0316 28.9865 30.6745 28.4604 31.201L27.2591 32.4023C26.7225 32.9389 26.0174 33.2072 25.3123 33.2072ZM19.2305 12.1435L20.7568 14.5221C22.0357 16.4409 22.7152 18.6851 22.7152 21.0027V29.2542C22.7152 29.627 22.8608 29.978 23.1244 30.2416L24.325 31.4425C24.8697 31.9865 25.7553 31.9865 26.2997 31.4425L27.501 30.2416C27.6656 30.0766 28.1673 29.5746 28.1673 29.2542V20.5842C28.1673 19.0458 27.64 17.3716 26.5548 15.4652L25.0192 12.1435H19.2305Z" fill="black"/>
<path d="M20.0245 7.39384C19.6498 7.39384 19.3458 7.09021 19.3458 6.71514V0.678697C19.3458 0.303628 19.6498 0 20.0245 0C20.3992 0 20.7032 0.303628 20.7032 0.678697V6.71514C20.7032 7.09021 20.3992 7.39384 20.0245 7.39384Z" fill="black"/>
<path d="M27.8858 8.56368C27.7717 8.56368 27.656 8.53495 27.55 8.47438C27.2246 8.28839 27.1116 7.87372 27.2976 7.54835L29.918 2.96249C30.1044 2.63711 30.5175 2.52452 30.8437 2.71011C31.1691 2.8957 31.282 3.31038 31.0961 3.63575L28.4756 8.222C28.3502 8.44098 28.1215 8.56368 27.8858 8.56368Z" fill="black"/>
<path d="M37.0583 11.1845C36.8852 11.1845 36.7112 11.1181 36.5788 10.9857C36.3136 10.7209 36.3136 10.2911 36.5788 10.0263L38.5443 8.06046C38.8091 7.79566 39.2389 7.79566 39.5037 8.06046C39.7689 8.32526 39.7689 8.75508 39.5037 9.01988L37.5382 10.9857C37.4058 11.1181 37.2323 11.1845 37.0583 11.1845Z" fill="black"/>
<path d="M12.1631 8.56368C11.9274 8.56368 11.6987 8.44098 11.5733 8.22161L8.9529 3.63575C8.76692 3.31038 8.8799 2.8957 9.20527 2.71011C9.53142 2.52452 9.94571 2.63711 10.1313 2.96249L12.7514 7.54835C12.9373 7.87372 12.8243 8.28839 12.499 8.47438C12.393 8.53495 12.2769 8.56368 12.1631 8.56368Z" fill="black"/>
<path d="M2.99027 11.1845C2.81671 11.1845 2.64315 11.1181 2.51075 10.9857L0.545327 9.01988C0.280138 8.75508 0.280138 8.32526 0.545327 8.06046C0.810128 7.79566 1.23994 7.79566 1.50474 8.06046L3.47017 10.0263C3.73497 10.2911 3.73497 10.7213 3.47017 10.9857C3.33777 11.1181 3.16421 11.1845 2.99027 11.1845Z" fill="black"/>
<path d="M25.4529 29.1075C25.0782 29.1075 24.7742 28.8038 24.7742 28.4288V25.7148C24.7742 25.3401 25.0782 25.0361 25.4529 25.0361C25.8276 25.0361 26.1316 25.3401 26.1316 25.7148V28.4288C26.1316 28.8038 25.8276 29.1075 25.4529 29.1075Z" fill="black"/>
</svg>
