<svg width="38" height="48" viewBox="0 0 38 48" fill="none" xmlns="http://www.w3.org/2000/svg">
<path d="M26.0845 1.26768L26.7872 0.556266L26.7872 0.556223L26.0845 1.26768ZM25.0792 1.05964L24.735 0.120751L24.7333 0.121361L25.0792 1.05964ZM22.5753 5.44292L23.3435 6.08314L23.3437 6.08294L22.5753 5.44292ZM20.8333 8.66936L19.8333 8.66936L19.8333 8.66944L20.8333 8.66936ZM19.9998 19.9797L20.0002 18.9797H19.9998V19.9797ZM23.8416 19.9815L23.937 18.986L23.8896 18.9815L23.8421 18.9815L23.8416 19.9815ZM24.0788 20L24.0589 20.9998L24.0688 21H24.0788V20ZM25.0343 19.3629L24.0878 19.0402L24.0878 19.0402L25.0343 19.3629ZM26.2896 15.6814L27.2361 16.0041L27.2368 16.0019L26.2896 15.6814ZM26.1588 14.9069L25.3608 15.5096L25.3622 15.5114L26.1588 14.9069ZM25.4052 14.5165L25.3404 15.5144L25.3415 15.5145L25.4052 14.5165ZM22.069 13.5217L21.5534 14.3786L21.5584 14.3815L22.069 13.5217ZM21.172 13.4292L21.4882 14.3779L21.4942 14.3758L21.172 13.4292ZM20.558 14.0275L19.6049 13.725L19.6046 13.7258L20.558 14.0275ZM19.0383 18.8298L18.0849 18.5281L18.0846 18.5289L19.0383 18.8298ZM19.2022 19.6211L19.9696 18.9799L19.9694 18.9796L19.2022 19.6211ZM11 19.1365H12H11ZM1.97615 6.85545L1.71575 5.88993L1.70959 5.89163L1.97615 6.85545ZM4.19476 6.2571L3.93683 5.29094L3.93437 5.2916L4.19476 6.2571ZM4.73654 5.74067L3.79534 5.40282L3.79498 5.40384L4.73654 5.74067ZM4.65749 4.96522L3.80694 5.49111L3.80734 5.49176L4.65749 4.96522ZM2.43969 1.37823L3.29024 0.852344L3.28906 0.850434L2.43969 1.37823ZM1.55791 1.03723L1.86884 1.98768L1.87357 1.9861L1.55791 1.03723ZM1.30235 6.70139L1.94611 5.93617L1.94564 5.93578L1.30235 6.70139ZM1.78585 6.88095L1.78835 5.88095H1.78585V6.88095ZM8.83407 19.6576L8.01969 19.0773L8.01947 19.0776L8.83407 19.6576ZM8.97063 18.8998L9.93886 18.6498L9.93841 18.648L8.97063 18.8998ZM6.24472 8.42199L7.2125 8.17021L7.21246 8.17005L6.24472 8.42199ZM5.26438 7.81254L5.52245 8.7787L5.52993 8.77664L5.26438 7.81254ZM2.03691 8.67463L2.29218 9.64151L2.29497 9.64076L2.03691 8.67463ZM1.52811 9.08489L0.647428 8.61117L0.646068 8.61371L1.52811 9.08489ZM1.45427 9.7613L2.41836 9.49573L2.41821 9.4952L1.45427 9.7613ZM4.10306 19.3771L5.06723 19.1119L5.06715 19.1116L4.10306 19.3771ZM27.9999 22.2501H26.9999V23.2501H27.9999V22.2501ZM28.0001 38V37H27.0001V38H28.0001ZM37 26.75L38 26.75L38 26.7499L37 26.75ZM27.9999 33.5001H26.9999V34.5001H27.9999V33.5001ZM27.9999 26.7501V25.7501H26.9999V26.7501H27.9999ZM32.5 26.7501H33.5V25.7501H32.5V26.7501ZM25.4167 13.9302C28.4261 13.9302 31 11.6384 31 8.66936H29C29 10.3989 27.4614 11.9302 25.4167 11.9302V13.9302ZM31 8.66936C31 7.43621 30.8199 6.23695 30.1688 4.90362C29.5302 3.59581 28.4651 2.21372 26.7872 0.556266L25.3817 1.9791C26.9785 3.55647 27.8712 4.75634 28.3716 5.78122C28.8596 6.78057 29 7.66473 29 8.66936H31ZM26.7872 0.556223C26.24 0.015725 25.4284 -0.133468 24.735 0.120752L25.4234 1.99853C25.4181 2.00048 25.4158 2.00003 25.4143 1.99972C25.4124 1.99935 25.3989 1.9961 25.3817 1.97914L26.7872 0.556223ZM24.7333 0.121361C24.0249 0.382502 23.5 1.04776 23.5 1.85193H25.5C25.5 1.89935 25.4837 1.93844 25.4657 1.96319C25.4481 1.98727 25.4308 1.99579 25.4251 1.99792L24.7333 0.121361ZM23.5 1.85193C23.5 2.23525 23.3532 2.66487 23.0385 3.18145C22.7211 3.70248 22.2906 4.22233 21.807 4.8029L23.3437 6.08294C23.8063 5.52753 24.3382 4.89226 24.7465 4.22198C25.1576 3.54725 25.5 2.74936 25.5 1.85193H23.5ZM21.8071 4.80271C21.3704 5.32672 20.8837 5.90781 20.5146 6.51291C20.1406 7.12596 19.8333 7.84724 19.8333 8.66936H21.8333C21.8333 8.35638 21.949 8.00203 22.222 7.55443C22.4999 7.09889 22.8842 6.63431 23.3435 6.08314L21.8071 4.80271ZM19.8333 8.66944C19.8335 11.6384 22.4073 13.9302 25.4167 13.9302V11.9302C23.3721 11.9302 21.8334 10.3989 21.8333 8.66929L19.8333 8.66944ZM19.9993 20.9797L23.8411 20.9815L23.8421 18.9815L20.0002 18.9797L19.9993 20.9797ZM23.7462 20.9769C23.7725 20.9794 23.9644 20.9979 24.0589 20.9998L24.0986 19.0002C24.1088 19.0004 24.114 19.0007 24.1107 19.0006C24.1087 19.0005 24.1043 19.0002 24.0972 18.9997C24.0828 18.9987 24.064 18.9973 24.0427 18.9955C24.0001 18.9919 23.9568 18.9879 23.937 18.986L23.7462 20.9769ZM24.0788 21C24.8862 21 25.6952 20.5235 25.9808 19.6856L24.0878 19.0402C24.0937 19.0229 24.1017 19.01 24.1082 19.0018C24.1145 18.9938 24.1187 18.9912 24.1183 18.9914C24.1165 18.9926 24.103 19 24.0788 19V21ZM25.9808 19.6857L27.2361 16.0041L25.3431 15.3587L24.0878 19.0402L25.9808 19.6857ZM27.2368 16.0019C27.4346 15.4173 27.3228 14.7865 26.9554 14.3024L25.3622 15.5114C25.3521 15.4981 25.3408 15.4762 25.3358 15.4468C25.3308 15.4171 25.3335 15.3869 25.3423 15.361L27.2368 16.0019ZM26.9567 14.3042C26.5956 13.8261 26.0404 13.555 25.469 13.5185L25.3415 15.5145C25.3574 15.5155 25.3677 15.5195 25.3719 15.5217C25.376 15.5238 25.3701 15.5219 25.3608 15.5096L26.9567 14.3042ZM25.4701 13.5186C24.3917 13.4485 23.3933 13.1451 22.5797 12.6619L21.5584 14.3815C22.6675 15.0403 23.9766 15.4258 25.3404 15.5144L25.4701 13.5186ZM22.5846 12.6649C22.0642 12.3517 21.4214 12.2879 20.8497 12.4825L21.4942 14.3758C21.5019 14.3732 21.5148 14.371 21.5302 14.3726C21.5456 14.3742 21.5535 14.3786 21.5534 14.3785L22.5846 12.6649ZM20.8558 12.4805C20.2823 12.6716 19.7982 13.1157 19.6049 13.725L21.5112 14.3299C21.5028 14.3565 21.4903 14.3718 21.484 14.3779C21.478 14.3837 21.4779 14.3813 21.4882 14.3779L20.8558 12.4805ZM19.6046 13.7258L18.0849 18.5281L19.9917 19.1316L21.5114 14.3292L19.6046 13.7258ZM18.0846 18.5289C17.892 19.1394 18.0356 19.7848 18.4351 20.2626L19.9694 18.9796C19.9776 18.9895 19.99 19.0096 19.9962 19.0398C20.0026 19.0704 20.0008 19.1027 19.9919 19.1308L18.0846 18.5289ZM18.4349 20.2623C18.827 20.7317 19.4123 20.9797 19.9998 20.9797V18.9797C19.984 18.9797 19.9715 18.9762 19.9643 18.9729C19.957 18.9697 19.9609 18.9694 19.9696 18.9799L18.4349 20.2623ZM11.8 21H18.2V19H11.8V21ZM18.2 21C19.2652 21 20 20.0925 20 19.1363H18C18 19.1237 18.0052 19.0967 18.0322 19.0676C18.0604 19.0372 18.1195 19 18.2 19V21ZM20 19.1363V1.86366H18V19.1363H20ZM20 1.86366C20 0.907458 19.2652 3.30851e-09 18.2 3.30851e-09V2C18.1195 2 18.0604 1.96283 18.0322 1.93238C18.0052 1.90327 18 1.87631 18 1.86366H20ZM18.2 3.30851e-09H11.8V2H18.2V3.30851e-09ZM11.8 3.30851e-09C10.7348 3.30851e-09 10 0.907456 10 1.86366H12C12 1.87631 11.9948 1.90327 11.9678 1.93238C11.9396 1.96283 11.8805 2 11.8 2V3.30851e-09ZM10 1.86366V3.59091H12V1.86366H10ZM10 3.59091C10 4.54711 10.7348 5.45457 11.8 5.45457V3.45457C11.8805 3.45457 11.9396 3.49173 11.9678 3.52219C11.9948 3.5513 12 3.57826 12 3.59091H10ZM11.8 5.45457H15V3.45457H11.8V5.45457ZM15 5.45457C14.9181 5.45457 14.8593 5.41682 14.832 5.38727C14.8057 5.35895 14.8001 5.33222 14.8001 5.31823H16.8001C16.8001 4.36277 16.0643 3.45457 15 3.45457V5.45457ZM14.8001 5.31823C14.8001 5.30423 14.8057 5.27752 14.832 5.2492C14.8593 5.21965 14.9181 5.18189 15 5.18189V7.18189C16.0645 7.18189 16.8001 6.27348 16.8001 5.31823H14.8001ZM15 5.18189H11.8V7.18189H15V5.18189ZM11.8 5.18189C10.7348 5.18189 10 6.08935 10 7.04555H12C12 7.0582 11.9948 7.08516 11.9678 7.11427C11.9396 7.14473 11.8805 7.18189 11.8 7.18189V5.18189ZM10 7.04555V8.77272H12V7.04555H10ZM10 8.77272C10 9.72892 10.7348 10.6364 11.8 10.6364V8.63638C11.8805 8.63638 11.9396 8.67354 11.9678 8.704C11.9948 8.73311 12 8.76007 12 8.77272H10ZM11.8 10.6364H15V8.63638H11.8V10.6364ZM15 10.6364C14.9181 10.6364 14.8593 10.5986 14.832 10.5691C14.8057 10.5408 14.8001 10.514 14.8001 10.5H16.8001C16.8001 9.54458 16.0643 8.63638 15 8.63638V10.6364ZM14.8001 10.5C14.8001 10.486 14.8057 10.4593 14.832 10.431C14.8593 10.4015 14.9181 10.3637 15 10.3637V12.3637C16.0645 12.3637 16.8001 11.4553 16.8001 10.5H14.8001ZM15 10.3637H11.8V12.3637H15V10.3637ZM11.8 10.3637C10.7348 10.3637 10 11.2712 10 12.2274H12C12 12.24 11.9948 12.267 11.9678 12.2961C11.9396 12.3265 11.8805 12.3637 11.8 12.3637V10.3637ZM10 12.2274V13.9546H12V12.2274H10ZM10 13.9546C10 14.9108 10.7348 15.8183 11.8 15.8183V13.8183C11.8805 13.8183 11.9396 13.8554 11.9678 13.8859C11.9948 13.915 12 13.942 12 13.9546H10ZM11.8 15.8183H15V13.8183H11.8V15.8183ZM15 15.8183C14.9181 15.8183 14.8593 15.7805 14.832 15.751C14.8057 15.7226 14.8001 15.6959 14.8001 15.6819H16.8001C16.8001 14.7265 16.0643 13.8183 15 13.8183V15.8183ZM14.8001 15.6819C14.8001 15.6679 14.8057 15.6412 14.832 15.6129C14.8593 15.5833 14.9181 15.5456 15 15.5456V17.5456C16.0645 17.5456 16.8001 16.6372 16.8001 15.6819H14.8001ZM15 15.5456H11.8V17.5456H15V15.5456ZM11.8 15.5456C10.7348 15.5456 10 16.4531 10 17.4093H12C12 17.4219 11.9948 17.4489 11.9678 17.478C11.9396 17.5084 11.8805 17.5456 11.8 17.5456V15.5456ZM10 17.4093V19.1365H12V17.4093H10ZM10 19.1365C10 20.0927 10.735 21 11.8 21V19C11.8805 19 11.9396 19.0372 11.9678 19.0676C11.9947 19.0967 12 19.1237 12 19.1365L10 19.1365ZM2.23654 7.82095L4.45515 7.22261L3.93437 5.2916L1.71576 5.88995L2.23654 7.82095ZM4.4527 7.22326C5.04337 7.06557 5.4845 6.61871 5.67811 6.0775L3.79498 5.40384C3.80441 5.37747 3.84196 5.31627 3.93683 5.29094L4.4527 7.22326ZM5.67774 6.07852C5.87098 5.54018 5.813 4.93171 5.50764 4.43869L3.80734 5.49176C3.79533 5.47237 3.79111 5.45564 3.78991 5.44378C3.78871 5.43195 3.78978 5.4183 3.79534 5.40282L5.67774 6.07852ZM5.50805 4.43933L3.29024 0.852345L1.58913 1.90412L3.80694 5.49111L5.50805 4.43933ZM3.28906 0.850434C2.87265 0.180332 2.04898 -0.180011 1.24226 0.0883557L1.87357 1.9861C1.81067 2.00703 1.74324 2.00325 1.68862 1.98206C1.63558 1.96148 1.60468 1.92914 1.59032 1.90604L3.28906 0.850434ZM1.247 0.0867926C0.466196 0.342217 0 1.08414 0 1.84827H2C2 1.86366 1.9954 1.88566 1.97858 1.91012C1.96149 1.93496 1.92642 1.96883 1.86883 1.98767L1.247 0.0867926ZM0 1.84827V6.03353H2V1.84827H0ZM0 6.03353C0 6.5728 0.229285 7.10591 0.659053 7.46701L1.94564 5.93578C1.97011 5.95634 1.98364 5.9774 1.99066 5.99292C1.99765 6.00839 2 6.02207 2 6.03353H0ZM0.658589 7.46662C0.973852 7.73184 1.3708 7.88095 1.78585 7.88095V5.88095C1.85391 5.88095 1.91021 5.90596 1.94611 5.93617L0.658589 7.46662ZM1.78336 7.88095C1.93588 7.88133 2.09022 7.86144 2.2427 7.81927L1.70959 5.89163C1.73624 5.88426 1.76313 5.88089 1.78835 5.88096L1.78336 7.88095ZM4.8826 21H8.18711V19H4.8826V21ZM8.18711 21C8.78091 21 9.31749 20.7028 9.64867 20.2376L8.01947 19.0776C8.04417 19.0429 8.10128 19 8.18711 19V21ZM9.64845 20.2379C9.97845 19.7749 10.0781 19.189 9.93885 18.6498L8.0024 19.1499C7.99958 19.139 7.99936 19.1287 8.00115 19.1188C8.00295 19.1087 8.00773 19.0941 8.01969 19.0773L9.64845 20.2379ZM9.93841 18.648L7.2125 8.17021L5.27693 8.67377L8.00284 19.1516L9.93841 18.648ZM7.21246 8.17005C6.96883 7.23422 6.01442 6.56871 4.99883 6.84844L5.52993 8.77664C5.45311 8.7978 5.38317 8.7792 5.34143 8.75333C5.30079 8.72813 5.28257 8.69542 5.27698 8.67393L7.21246 8.17005ZM5.00631 6.84641L1.77884 7.70851L2.29497 9.64076L5.52244 8.77867L5.00631 6.84641ZM1.78164 7.70776C1.28306 7.8394 0.881068 8.17683 0.647432 8.61117L2.40878 9.55862C2.39582 9.5827 2.36052 9.62346 2.29218 9.6415L1.78164 7.70776ZM0.646068 8.61371C0.414621 9.04697 0.359967 9.55521 0.490321 10.0274L2.41821 9.4952C2.42103 9.50541 2.42159 9.51491 2.42063 9.5237C2.41967 9.53246 2.41686 9.5435 2.41014 9.55607L0.646068 8.61371ZM0.490174 10.0269L3.13896 19.6427L5.06715 19.1116L2.41836 9.49573L0.490174 10.0269ZM3.13888 19.6424C3.34965 20.4085 4.03448 21 4.8826 21V19C5.01 19 5.05977 19.0847 5.06723 19.1119L3.13888 19.6424ZM32.5 21.2501H27.9999V23.2501H32.5V21.2501ZM28.9999 22.2501V21.125H26.9999V22.2501H28.9999ZM28.9999 21.125C28.9999 19.9509 28.049 19 26.8749 19V21C26.9445 21 26.9999 21.0555 26.9999 21.125H28.9999ZM26.8749 19H2.12503V21H26.8749V19ZM2.12503 19C0.950908 19 0 19.9509 0 21.125H2C2 21.0555 2.05547 21 2.12503 21V19ZM0 21.125V42.5H2V21.125H0ZM0 42.5C0 45.534 2.46584 48 5.50003 48V46C3.57044 46 2 44.4295 2 42.5H0ZM5.50003 48H23.5V46H5.50003V48ZM23.5 48C26.5341 48 29.0001 45.5342 29.0001 42.5H27.0001C27.0001 44.4296 25.4295 46 23.5 46V48ZM29.0001 42.5V38H27.0001V42.5H29.0001ZM28.0001 39C33.5161 39 38 34.5147 38 29H36C36 33.4103 32.4114 37 28.0001 37V39ZM38 29V26.75H36V29H38ZM38 26.7499C37.9999 23.7157 35.5327 21.2501 32.5 21.2501V23.2501C34.4285 23.2501 35.9999 24.8207 36 26.75L38 26.7499ZM31.5 29C31.5 30.9294 29.9285 32.5001 27.9999 32.5001V34.5001C31.0328 34.5001 33.5 32.0342 33.5 29H31.5ZM28.9999 33.5001V26.7501H26.9999V33.5001H28.9999ZM27.9999 27.7501H32.5V25.7501H27.9999V27.7501ZM31.5 26.7501V29H33.5V26.7501H31.5Z" fill="black"/>
</svg>
